<svg width="462" height="101" viewBox="0 0 462 101" fill="none" xmlns="http://www.w3.org/2000/svg">
<path fill-rule="evenodd" clip-rule="evenodd" d="M50.7109 100.711C78.3252 100.711 100.711 78.3249 100.711 50.7107C100.711 23.0965 78.3252 0.710694 50.7109 0.710693C23.0967 0.710693 0.710938 23.0965 0.710938 50.7107C0.710937 58.5915 2.53419 66.0465 5.78189 72.6768L18.3383 60.1204C17.4717 57.1339 17.0072 53.9766 17.0072 50.7107C17.0072 32.0967 32.0969 17.007 50.7109 17.007C69.325 17.007 84.4146 32.0967 84.4146 50.7107C84.4146 69.3247 69.325 84.4144 50.7109 84.4144C47.4923 84.4144 44.379 83.9632 41.4309 83.1207L28.857 95.6945C35.4592 98.908 42.8745 100.711 50.7109 100.711Z" fill="#121212"/>
<path d="M28.7909 85.3589C25.2762 88.8737 19.5777 88.8737 16.063 85.3589C12.5483 81.8442 12.5483 76.1458 16.063 72.631C19.5777 69.1163 25.2762 69.1163 28.7909 72.631C32.3056 76.1458 32.3056 81.8442 28.7909 85.3589Z" fill="#121212"/>
<path d="M63.7113 50.7106C63.7113 57.8903 57.891 63.7106 50.7113 63.7106C43.5316 63.7106 37.7113 57.8903 37.7113 50.7106C37.7113 43.5309 43.5316 37.7106 50.7113 37.7106C57.891 37.7106 63.7113 43.5309 63.7113 50.7106Z" fill="#121212"/>
<path d="M377 101L377 84.7037H411.37V21.2963H385.87L385.87 5L453.13 5V21.2963L427.63 21.2963V84.7037H462V101H377Z" fill="black"/>
<path d="M229 5V101H212.704L212.704 50.0938C203.815 58.2099 191.985 63.1601 179 63.1601C166.015 63.1601 154.185 58.2099 145.296 50.0937V101H129V5H145.296V13.1601C145.296 31.7741 160.386 46.8638 179 46.8638C197.614 46.8638 212.704 31.7741 212.704 13.1601V5H229Z" fill="black"/>
<path d="M355 101H338.704V50.8214C338.704 32.2739 323.614 17.2381 305 17.2381C286.386 17.2381 271.296 32.2739 271.296 50.8214V101H255V50.8214C255 36.2449 261.282 23.1304 271.296 14.0197C280.185 5.93248 292.015 1 305 1C317.985 1 329.815 5.93248 338.704 14.0197C348.718 23.1304 355 36.2449 355 50.8214V101Z" fill="black"/>
</svg>
