<svg xmlns="http://www.w3.org/2000/svg" width="16" height="16" viewBox="0 0 16 16" fill="none">
  <circle cx="8" cy="8" r="8" fill="url(#paint0_linear_69_37)"/>
  <path fill-rule="evenodd" clip-rule="evenodd" d="M7.99997 13.332C10.9448 13.332 13.332 10.9448 13.332 7.99997C13.332 5.05519 10.9448 2.66797 7.99997 2.66797C5.05519 2.66797 2.66797 5.05519 2.66797 7.99997C2.66797 8.84038 2.8624 9.63538 3.20874 10.3424L4.54775 9.00342C4.45534 8.68494 4.40581 8.34824 4.40581 7.99997C4.40581 6.01497 6.01497 4.40581 7.99997 4.40581C9.98497 4.40581 11.5941 6.01497 11.5941 7.99997C11.5941 9.98497 9.98497 11.5941 7.99997 11.5941C7.65673 11.5941 7.32473 11.546 7.01034 11.4562L5.66947 12.797C6.37352 13.1397 7.1643 13.332 7.99997 13.332Z" fill="white"/>
  <path d="M5.66242 11.6949C5.28761 12.0697 4.67992 12.0697 4.30511 11.6949C3.9303 11.32 3.9303 10.7124 4.30511 10.3376C4.67992 9.96275 5.28761 9.96275 5.66242 10.3376C6.03722 10.7124 6.03722 11.32 5.66242 11.6949Z" fill="white"/>
  <path d="M9.38632 7.99996C9.38632 8.7656 8.76565 9.38628 8.00001 9.38628C7.23436 9.38628 6.61369 8.7656 6.61369 7.99996C6.61369 7.23432 7.23436 6.61364 8 6.61364C8.76565 6.61364 9.38632 7.23432 9.38632 7.99996Z" fill="white"/>
  <defs>
    <linearGradient id="paint0_linear_69_37" x1="16" y1="-5.52358e-06" x2="8.78154e-06" y2="16" gradientUnits="userSpaceOnUse">
      <stop stop-color="#9250FF"/>
      <stop offset="0.26054" stop-color="#7B78FE"/>
      <stop offset="0.505208" stop-color="#1F48E1"/>
      <stop offset="1" stop-color="#9250FF"/>
    </linearGradient>
  </defs>
</svg>
